<svg xmlns="http://www.w3.org/2000/svg" viewBox="0 0 400 400" width="100%" height="100%">
  <defs>
    <filter id="neon-glow" x="-20%" y="-20%" width="140%" height="140%">
      <feGaussianBlur stdDeviation="5" result="blur" />
      <feMerge>
        <feMergeNode in="blur" />
        <feMergeNode in="SourceGraphic" />
      </feMerge>
    </filter>
  </defs>

  <!-- 背景 -->
  <rect width="100%" height="100%" fill="#1a1c23" rx="15" />

  <!-- 猫の耳と顔の輪郭 -->
  <path d="M 140 180 L 140 120 L 175 150 L 225 150 L 260 120 L 260 180 Z" fill="none" stroke="#ff79c6" stroke-width="4" stroke-linejoin="round" filter="url(#neon-glow)" />

  <!-- 目 -->
  <ellipse cx="175" cy="175" rx="6" ry="3" fill="#50fa7b" filter="url(#neon-glow)" />
  <ellipse cx="225" cy="175" rx="6" ry="3" fill="#50fa7b" filter="url(#neon-glow)" />

  <!-- 鼻と口 -->
  <path d="M 195 190 Q 200 195 205 190 Q 200 192 195 190 Z" fill="none" stroke="#ff79c6" stroke-width="3" />
  <path d="M 200 192 L 200 198 Q 195 205 190 200 M 200 198 Q 205 205 210 200" fill="none" stroke="#ff79c6" stroke-width="3" />

  <!-- ひげ -->
  <line x1="125" y1="185" x2="90" y2="180" stroke="#8be9fd" stroke-width="2" filter="url(#neon-glow)" />
  <line x1="125" y1="195" x2="85" y2="195" stroke="#8be9fd" stroke-width="2" filter="url(#neon-glow)" />
  <line x1="125" y1="205" x2="90" y2="210" stroke="#8be9fd" stroke-width="2" filter="url(#neon-glow)" />

  <line x1="275" y1="185" x2="310" y2="180" stroke="#8be9fd" stroke-width="2" filter="url(#neon-glow)" />
  <line x1="275" y1="195" x2="315" y2="195" stroke="#8be9fd" stroke-width="2" filter="url(#neon-glow)" />
  <line x1="275" y1="205" x2="310" y2="210" stroke="#8be9fd" stroke-width="2" filter="url(#neon-glow)" />

  <!-- 体（ベストと肩） -->
  <path d="M 160 220 L 120 300 L 280 300 L 240 220 Z" fill="none" stroke="#ff79c6" stroke-width="4" stroke-linejoin="round" filter="url(#neon-glow)" />
  <line x1="200" y1="220" x2="200" y2="300" stroke="#ff79c6" stroke-width="2" stroke-dasharray="5,5" />

  <!-- カウンターテーブル -->
  <line x1="40" y1="300" x2="360" y2="300" stroke="#bd93f9" stroke-width="6" stroke-linecap="round" filter="url(#neon-glow)" />

  <!-- レベル別のアクセサリー -->
  
          <!-- 蝶ネクタイ -->
          <polygon points="190,225 210,225 200,235" fill="#ff5555" stroke="#ff5555" stroke-width="1" filter="url(#neon-glow)" />
          <polygon points="190,245 210,245 200,235" fill="#ff5555" stroke="#ff5555" stroke-width="1" filter="url(#neon-glow)" />
          <!-- 赤いネオンのサングラス -->
          <path d="M 160 170 L 240 170 Q 240 185 225 185 Q 210 185 210 175 L 190 175 Q 190 185 175 185 Q 160 185 160 170 Z" fill="none" stroke="#ff5555" stroke-width="3" filter="url(#neon-glow)" />
          <!-- カウンターに置かれたシェイカー -->
          <rect x="270" y="245" width="25" height="50" rx="5" fill="none" stroke="#50fa7b" stroke-width="3" filter="url(#neon-glow)" />
        

  <!-- テキスト -->
  <text x="200" y="55" font-family="'Segoe UI', Roboto, sans-serif" font-size="22" font-weight="bold" fill="#00ffff" text-anchor="middle" filter="url(#neon-glow)">Cat Bartender</text>
  <text x="200" y="345" font-family="'Segoe UI', Roboto, sans-serif" font-size="16" font-weight="bold" fill="#ffb86c" text-anchor="middle">Lv.3 Master Mixologist</text>
  <text x="200" y="375" font-family="'Segoe UI', Roboto, sans-serif" font-size="16" font-weight="bold" fill="#50fa7b" text-anchor="middle" filter="url(#neon-glow)">Status: Active</text>
</svg>